<?xml version="1.0" encoding="utf-8"?><!-- Uploaded to: SVG Repo, www.svgrepo.com, Generator: SVG Repo Mixer Tools -->
<svg fill="#000000" width="800px" height="800px" viewBox="0 0 24 24" id="statistic-low" data-name="Flat Color" xmlns="http://www.w3.org/2000/svg" class="icon flat-color"><path id="secondary" d="M21,20H3a1,1,0,0,1,0-2H21a1,1,0,0,1,0,2Z" style="fill: rgb(44, 169, 188);"></path><path id="primary" d="M21,9a1,1,0,0,0-1,1v2.59l-5.29-5.3a1,1,0,0,0-1.16-.18L8.26,9.75,3.77,4.36A1,1,0,0,0,2.23,5.64l5,6a1,1,0,0,0,1.22.25L13.8,9.22,18.59,14H16a1,1,0,0,0,0,2h5a1,1,0,0,0,1-1V10A1,1,0,0,0,21,9Z" style="fill: rgb(0, 0, 0);"></path></svg>